<?xml version="1.0" encoding="iso-8859-1"?>

<!DOCTYPE svg PUBLIC "-//W3C//DTD SVG 1.1//EN" "http://www.w3.org/Graphics/SVG/1.1/DTD/svg11.dtd">
<!-- Uploaded to: SVG Repo, www.svgrepo.com, Generator: SVG Repo Mixer Tools -->
<svg height="800px" width="800px" version="1.1" id="_x36_" xmlns="http://www.w3.org/2000/svg" xmlns:xlink="http://www.w3.org/1999/xlink" 
	 viewBox="0 0 512 512"  xml:space="preserve">
<g>
	<path style="fill:#D18770;" d="M90.465,186.912c0.086-7.581-5.26-27.49,2.771-43.781c8.025-16.291-42.226-20.546-67.682,0.367
		c-24.51,20.137,1.764,37.468,17.938,33.657C76.267,169.428,90.299,202.261,90.465,186.912z"/>
	<path style="fill:#DD8968;" d="M73.315,96.009c0.079,7.574-5.26,27.483,2.764,43.782c8.025,16.277-46.799,25.105-67.674-0.375
		c-20.878-25.48,1.76-37.461,17.941-33.65C59.102,113.485,73.137,80.654,73.315,96.009z"/>
	<path style="fill:#F6E174;" d="M76.45,264.211c18.183-21.406,33.092-31.038,20.821-50.433
		c-23.402-23.408-34.309-48.743-34.309-84.458c0-35.709,14.476-68.035,37.876-91.436C124.243,14.483,156.563,0,192.278,0
		s68.035,14.483,91.443,37.884c23.401,23.402,37.87,55.728,37.87,91.436c0,52.789-42.222,95.011-42.222,121.4
		c-2.64,10.561,15.835,23.761,39.582,23.761c23.761,0,102.932,18.467,160.988-58.063c15.28-21.122,33.755-9.238,31.675,21.107
		C509.618,266.609,493.133,512,318.951,512c-50.135,0-43.788,0-139.874,0c-40.074,0-76.36-16.25-102.627-42.513
		c-26.273-26.27-42.52-62.554-42.52-102.649C33.93,326.765,50.176,290.474,76.45,264.211"/>
	<path style="fill:#E5D29B;" d="M219.533,340.458h193.216c21.108,0,26.388,36.941-7.92,58.063c0,26.38-13.201,65.97-52.782,65.97
		c-39.596,0-87.092,0-121.4,0c-34.316,0-58.064-39.59-58.064-63.337C172.584,377.399,195.777,340.458,219.533,340.458z"/>
	<path style="fill:#F0D780;" d="M206.331,324.616h193.218c21.108,0,26.388,36.949-7.92,58.064c0,26.395-13.194,65.983-52.776,65.983
		c-39.589,0-87.097,0-121.406,0s-58.057-39.589-58.057-63.344C159.39,361.565,182.583,324.616,206.331,324.616z"/>
	<path style="fill:#FFFFFF;" d="M159.39,109.522c0,16.77-13.596,30.359-30.348,30.359c-16.763,0-30.355-13.589-30.355-30.359
		c0-16.748,13.592-30.344,30.355-30.344C145.794,79.177,159.39,92.773,159.39,109.522z"/>
	<path style="fill:#646363;" d="M143.556,109.522c0,8.025-6.503,14.525-14.514,14.525c-8.018,0-14.518-6.5-14.518-14.525
		c0-8.003,6.5-14.503,14.518-14.503C137.052,95.018,143.556,101.518,143.556,109.522z"/>
	<path style="opacity:0.07;fill:#D74914;" d="M479.939,216.418c-58.056,76.53-137.227,58.063-160.988,58.063
		c-23.747,0-42.222-13.201-39.582-23.761c0-16.264,16.049-38.563,28.356-65.637l-254.33,254.33
		c6.371,11.011,14.115,21.128,23.055,30.075C102.717,495.75,139.003,512,179.077,512c96.086,0,89.738,0,139.874,0
		c174.182,0,190.668-245.391,192.664-274.474C513.694,207.18,495.219,195.296,479.939,216.418z"/>
</g>
</svg>